<svg version="1.1" xmlns="http://www.w3.org/2000/svg" xmlns:xlink="http://www.w3.org/1999/xlink" width="500.000000pt" height="500.000000pt" viewBox="0,0,256,256"><g fill="#ec0d0d" fill-rule="nonzero" stroke="none" stroke-width="1" stroke-linecap="butt" stroke-linejoin="miter" stroke-miterlimit="10" stroke-dasharray="" stroke-dashoffset="0" font-family="none" font-weight="none" font-size="none" text-anchor="none" style="mix-blend-mode: normal"><g transform="translate(0,0.00518) scale(0.512,0.512)"><g transform="translate(0,500) scale(0.1,-0.1)"><path d="M2223,4374c-704,-102 -1300,-605 -1523,-1281c-71,-219 -85,-313 -85,-593c0,-216 3,-258 23,-359c155,-767 752,-1359 1514,-1502c160,-30 431,-37 598,-15c550,72 1029,375 1343,851c120,182 222,434 269,665c20,102 23,143 23,360c0,216 -3,258 -23,359c-127,629 -544,1139 -1133,1389c-237,101 -456,143 -739,141c-96,-1 -216,-7 -267,-15zM2801,4317c460,-79 889,-339 1167,-710c555,-742 482,-1758 -175,-2413c-491,-488 -1211,-656 -1878,-438c-96,32 -294,125 -390,184c-407,249 -721,696 -824,1172c-98,455 -17,938 226,1342c138,229 355,450 582,594c266,168 495,247 831,286c71,8 378,-3 461,-17z"></path><path d="M2295,4284c-757,-85 -1382,-647 -1549,-1395c-133,-597 47,-1219 480,-1652c150,-151 336,-283 504,-359c90,-41 199,-80 211,-76c6,2 -20,14 -58,27c-145,51 -345,162 -473,263c-311,245 -537,587 -631,953c-53,204 -72,452 -50,645c70,612 439,1138 991,1411c243,120 499,179 780,179c330,0 628,-83 926,-258c219,-129 463,-373 596,-597c416,-700 320,-1580 -236,-2153c-440,-454 -1057,-643 -1668,-511c-51,12 -104,23 -118,25l-25,4l25,-10c55,-25 233,-59 362,-71c399,-36 845,87 1176,325c248,179 449,415 577,681c228,472 242,1005 38,1484c-256,603 -807,1014 -1458,1086c-155,18 -239,17 -400,-1z"></path><path d="M2446,4089c-25,-20 -26,-23 -26,-135c0,-114 0,-115 23,-112c21,3 22,6 19,94c-4,93 7,139 31,131c8,-2 14,-42 17,-113c5,-104 6,-109 28,-112c22,-3 22,-2 22,108c0,104 -1,112 -25,135c-30,30 -54,31 -89,4z"></path><path d="M2676,4068c-13,-63 -27,-217 -22,-227c4,-6 13,-11 21,-11c9,0 16,27 24,88c24,186 24,172 2,172c-13,0 -22,-8 -25,-22z"></path><path d="M2176,4073c-15,-4 -17,-11 -12,-36c4,-18 14,-76 23,-129c13,-81 19,-98 34,-98c25,0 28,9 19,58c-5,27 -4,45 3,49c15,9 47,-35 47,-63c0,-19 5,-24 25,-24c29,0 30,10 8,65c-8,22 -14,63 -14,92c3,66 -21,94 -76,92c-21,-1 -46,-3 -57,-6zM2262,4016c13,-31 4,-56 -21,-56c-14,0 -20,9 -23,35c-2,20 -2,38 1,40c12,12 32,3 43,-19z"></path><path d="M2812,3948c-17,-68 -27,-127 -23,-131c12,-12 90,-29 102,-22c19,12 8,34 -21,40c-36,8 -37,13 -6,132c24,93 23,103 -14,103c-4,0 -21,-55 -38,-122z"></path><path d="M2010,4030c-12,-8 -10,-23 19,-111c23,-71 30,-104 22,-112c-18,-18 -36,9 -70,107c-28,80 -35,93 -52,89c-10,-3 -19,-10 -19,-16c0,-23 64,-192 79,-210c22,-27 79,-19 104,14l19,27l-37,111c-20,61 -40,111 -43,111c-4,0 -14,-5 -22,-10z"></path><path d="M1743,3920c-12,-5 -30,-21 -39,-35c-16,-25 -16,-28 7,-77c13,-29 36,-71 51,-95c24,-37 32,-43 61,-43c38,0 77,34 77,66c0,17 -72,160 -88,175c-14,13 -48,17 -69,9zM1814,3813c40,-75 46,-106 19,-101c-21,4 -96,135 -89,154c11,30 36,11 70,-53z"></path><path d="M3160,3819c-57,-104 -60,-112 -43,-125c32,-24 88,-37 110,-26c28,15 103,165 96,192c-6,21 -68,70 -90,70c-6,0 -39,-50 -73,-111zM3276,3856c8,-22 -65,-146 -86,-146c-31,0 -30,12 12,88c38,69 62,88 74,58z"></path><path d="M1531,3789c-24,-18 -40,-37 -37,-45c11,-29 142,-194 154,-194c25,0 23,29 -3,65c-26,33 -27,37 -11,54c30,33 10,66 -23,37c-16,-15 -19,-14 -42,10l-24,26l30,24c27,21 28,25 14,39c-13,14 -19,12 -58,-16z"></path><path d="M3431,3787c-6,-8 -8,-17 -4,-21c4,-4 1,-11 -7,-16c-12,-7 -11,-10 4,-16c24,-9 60,34 44,53c-13,17 -23,16 -37,0z"></path><path d="M3481,3613c-65,-73 -78,-115 -43,-145c47,-42 76,-31 156,60c62,69 69,97 33,130c-44,41 -78,30 -146,-45zM3600,3620c0,-29 -103,-135 -123,-127c-27,10 -20,25 40,88c58,61 83,73 83,39z"></path><path d="M2340,3659c-155,-17 -339,-80 -481,-165c-102,-62 -262,-212 -334,-315c-104,-146 -170,-306 -202,-487c-9,-51 -20,-89 -24,-85c-3,5 -12,24 -18,44c-11,35 -104,149 -113,139c-11,-12 11,-160 31,-211c11,-30 41,-79 66,-108c29,-34 45,-62 45,-79c0,-15 3,-38 7,-52c5,-20 -8,-11 -58,40c-55,57 -126,106 -137,95c-2,-1 10,-29 26,-61c16,-33 37,-85 47,-116c21,-67 67,-125 131,-165c39,-24 52,-40 85,-113c97,-207 226,-358 414,-485c209,-140 420,-199 710,-199c206,0 321,27 501,114c229,111 385,256 511,475c70,122 143,346 143,440c0,65 11,69 35,12c22,-56 91,-147 110,-147c17,0 0,147 -25,211c-11,31 -41,79 -68,109c-43,48 -50,62 -56,114l-8,59l44,-54c41,-51 153,-137 164,-126c3,2 -4,20 -16,39c-11,19 -31,68 -45,109c-35,101 -63,140 -140,191c-60,39 -70,50 -99,114c-142,306 -453,556 -788,633c-158,36 -309,46 -458,30zM2760,3614c185,-47 372,-155 516,-298c104,-104 178,-210 239,-340c62,-135 62,-131 22,-179c-67,-83 -78,-129 -69,-286l7,-115l47,70c25,38 54,86 64,106c21,45 34,40 34,-11c0,-30 -7,-44 -36,-72c-54,-52 -111,-155 -135,-247c-12,-45 -19,-85 -15,-89c3,-4 41,28 83,70c42,42 78,75 81,73c6,-7 -40,-168 -69,-238c-151,-368 -495,-633 -900,-692c-132,-20 -214,-20 -304,-1c-412,87 -725,353 -870,740l-25,65l44,58c24,31 49,72 55,91c14,43 15,301 1,301c-5,0 -10,-5 -10,-10c0,-6 -21,-41 -46,-78c-25,-37 -53,-83 -61,-102c-14,-32 -16,-33 -23,-15c-19,46 -11,74 34,115c54,50 117,169 140,264c9,38 14,71 11,74c-3,3 -41,-30 -85,-73c-56,-56 -80,-74 -80,-61c0,36 71,231 111,303c141,256 349,435 621,536c213,80 413,93 618,41zM2200,3616c0,-2 -21,-11 -47,-21c-81,-30 -225,-105 -293,-153c-227,-160 -391,-406 -459,-687c-10,-44 -33,-109 -50,-145c-28,-61 -30,-63 -31,-32c0,51 37,222 66,304c62,172 149,310 278,437c99,99 180,157 296,213c93,46 240,97 240,84zM3063,3519c144,-73 323,-230 414,-364c46,-68 118,-207 128,-246c4,-17 1,-30 -9,-38c-13,-11 -17,-9 -27,15c-45,107 -92,200 -134,264c-67,102 -210,243 -325,319c-52,35 -97,65 -99,67c-11,10 14,2 52,-17zM3701,2818c39,-54 122,-218 110,-218c-15,0 -97,96 -115,135c-25,52 -45,125 -35,125c5,0 23,-19 40,-42zM3760,2798c28,-39 65,-136 56,-146c-3,-2 -21,29 -41,69c-21,41 -49,89 -62,108c-24,31 -24,32 -4,22c12,-7 35,-31 51,-53zM3595,2783c-9,-32 -29,-85 -45,-119c-15,-33 -33,-85 -40,-115c-23,-100 -29,-98 -29,11c0,83 3,114 19,148c20,43 100,146 108,138c2,-3 -4,-31 -13,-63zM1546,2802c-4,-11 -35,-52 -70,-91c-35,-40 -80,-100 -101,-134c-33,-55 -36,-58 -31,-28c11,61 50,124 125,204c73,77 89,87 77,49zM3626,2726c-16,-71 -59,-172 -90,-211c-15,-19 -15,-19 -16,8c0,16 17,70 38,120c21,51 44,114 52,140c10,39 15,45 22,32c7,-11 4,-41 -6,-89zM1528,2718c-21,-60 -76,-144 -123,-187c-26,-24 -49,-41 -51,-38c-7,7 20,60 59,117c28,40 115,140 123,140c2,0 -2,-15 -8,-32zM3680,2604c0,-28 -33,-75 -44,-63c-16,15 -6,173 12,204c7,12 31,-95 32,-141zM1234,2604c15,-53 25,-98 23,-100c-14,-15 -77,159 -77,211c1,41 27,-12 54,-111zM1244,2690c28,-43 56,-135 56,-184c0,-29 -1,-30 -14,-10c-8,11 -22,47 -30,81c-9,33 -23,76 -31,96c-28,67 -19,74 19,17zM1527,2405c-2,-40 -11,-85 -22,-105c-22,-42 -96,-133 -103,-126c-8,9 19,95 55,179c19,43 39,106 45,140l12,62l9,-40c4,-22 7,-71 4,-110zM3649,2504c-16,-43 -95,-156 -139,-199l-40,-39l9,30c16,57 73,144 123,189c28,25 52,45 54,45c2,0 -1,-12 -7,-26zM3745,2462c9,-31 25,-81 36,-111c11,-30 18,-56 15,-58c-9,-9 -50,63 -67,119c-21,65 -25,123 -9,113c5,-3 17,-32 25,-63zM1451,2378c-22,-52 -45,-115 -51,-141c-16,-59 -34,-51 -25,12c9,67 29,130 60,192c39,78 49,88 53,57c2,-15 -15,-68 -37,-120zM3787,2458c28,-60 48,-147 36,-159c-8,-8 -23,28 -64,165c-19,62 -2,59 28,-6zM3665,2468c-14,-61 -55,-128 -127,-204c-39,-41 -73,-72 -75,-70c-11,11 13,52 63,108c30,33 73,91 96,129c24,37 44,68 46,69c2,0 0,-15 -3,-32zM1374,2403c4,-45 1,-85 -8,-118c-15,-57 -18,-52 -36,69c-9,57 -8,72 5,92c8,13 19,24 24,24c5,0 11,-30 15,-67zM3666,2297c-64,-337 -257,-617 -542,-787c-85,-50 -235,-114 -294,-124c-19,-4 9,11 63,33c363,146 621,445 707,818c12,48 33,115 48,149c27,60 27,61 30,28c2,-19 -4,-71 -12,-117zM1269,2350c35,-44 63,-102 86,-180l7,-25l-29,28c-25,23 -143,224 -143,242c0,15 45,-22 79,-65zM1237,2297c19,-40 44,-84 55,-99c41,-58 -14,-18 -61,44c-16,22 -52,140 -40,132c5,-3 26,-38 46,-77zM1450,2075c89,-226 280,-456 473,-569c37,-21 67,-40 67,-42c0,-3 -31,11 -68,30c-92,46 -214,139 -289,219c-126,136 -257,371 -232,418c14,26 20,19 49,-56z"></path><path d="M2570,3174c-92,-42 -180,-146 -191,-224c-5,-31 17,-29 80,7c86,50 169,146 186,216c9,34 -3,35 -75,1z"></path><path d="M2900,3176c-86,-25 -190,-90 -190,-119c0,-18 191,-1 243,22c64,28 140,82 129,93c-15,15 -135,18 -182,4z"></path><path d="M2235,3002c-65,-49 -111,-111 -130,-174c-17,-57 -20,-128 -6,-128c5,0 34,23 65,51c38,35 67,73 91,122c34,70 57,167 39,167c-5,0 -31,-17 -59,-38z"></path><path d="M2625,2987c-59,-20 -106,-47 -100,-57c13,-21 113,-44 190,-43c78,1 186,30 201,54c3,5 -16,19 -42,30c-60,27 -191,35 -249,16z"></path><path d="M2367,2836c-21,-8 -42,-17 -45,-21c-22,-21 119,-75 213,-81c70,-5 149,11 156,31c1,6 -28,25 -65,44c-56,28 -81,35 -144,38c-50,2 -90,-2 -115,-11z"></path><path d="M1975,2796c-40,-53 -65,-128 -65,-197c0,-70 17,-139 35,-139c20,0 74,121 83,185c8,65 0,161 -16,177c-6,6 -19,-3 -37,-26z"></path><path d="M2819,2738c44,-60 116,-187 109,-194c-3,-2 -18,15 -33,38c-16,24 -53,69 -83,100l-54,57l-44,-24c-24,-13 -49,-25 -56,-27c-8,-3 5,-28 36,-69c72,-96 143,-248 159,-339c5,-28 1,-23 -22,27c-54,115 -118,196 -204,260l-48,35l-57,-25c-31,-14 -70,-29 -87,-33c-49,-11 -49,-15 6,-62c29,-26 78,-79 110,-120c60,-75 144,-210 136,-218c-2,-2 -24,21 -48,52c-24,31 -68,76 -98,101c-56,46 -179,113 -206,113c-8,0 -45,-20 -81,-45c-37,-24 -85,-51 -108,-60c-23,-8 -63,-23 -91,-33c-49,-18 -50,-19 -49,-58c1,-59 35,-108 96,-138l52,-26h440c277,0 455,4 479,11c53,14 101,60 127,121c19,45 22,65 18,157c-3,82 -9,117 -26,156c-37,80 -96,149 -171,199c-62,42 -192,96 -228,96c-8,0 2,-21 26,-52z"></path><path d="M2234,2672c-27,-10 -66,-27 -84,-39l-34,-22l29,-13c18,-7 74,-12 140,-13c103,0 114,2 175,31l65,32l-45,21c-58,26 -173,28 -246,3z"></path><path d="M1799,2539c-9,-16 -14,-57 -14,-124c0,-90 3,-105 27,-150c54,-99 73,-108 83,-40c13,83 1,186 -27,245c-14,30 -32,64 -41,74c-14,19 -15,19 -28,-5z"></path><path d="M2177,2499c-80,-19 -133,-49 -150,-85c-10,-19 -17,-46 -17,-59v-24l53,16c78,22 179,79 222,123l39,40l-54,-1c-30,-1 -72,-5 -93,-10z"></path><path d="M2084,1806c-3,-7 -4,-33 -2,-57c2,-37 7,-45 26,-47c12,-2 22,1 22,7c0,6 -7,11 -15,11c-8,0 -15,7 -15,15c0,8 7,15 15,15c8,0 15,5 15,10c0,6 -7,10 -15,10c-8,0 -15,7 -15,15c0,8 7,15 15,15c8,0 15,5 15,10c0,15 -40,12 -46,-4z"></path><path d="M2388,1764c-1,-31 0,-58 5,-61c4,-2 7,23 7,56c0,76 -7,79 -12,5z"></path><path d="M2463,1813c-19,-7 -15,-38 7,-58c11,-10 20,-22 20,-27c0,-5 -9,-6 -20,-3c-12,4 -20,2 -20,-5c0,-18 31,-24 46,-8c13,13 12,18 -6,40c-25,32 -28,57 -4,37c14,-12 16,-11 13,5c-4,21 -17,27 -36,19z"></path><path d="M2782,1808c-19,-19 -14,-49 8,-55c11,-3 20,-12 20,-20c0,-10 -6,-12 -20,-8c-15,5 -18,3 -14,-9c8,-21 40,-21 48,0c15,40 1,104 -24,104c-3,0 -11,-5 -18,-12zM2810,1785c0,-8 -4,-15 -10,-15c-5,0 -10,7 -10,15c0,8 5,15 10,15c6,0 10,-7 10,-15z"></path><path d="M2880,1805c-14,-17 -4,-55 16,-55c8,0 14,-7 14,-16c0,-11 -5,-14 -16,-10c-10,4 -14,1 -12,-6c3,-7 13,-13 24,-13c16,0 20,8 22,49c2,32 -1,52 -10,57c-18,12 -24,11 -38,-6zM2910,1785c0,-8 -4,-15 -10,-15c-5,0 -10,7 -10,15c0,8 5,15 10,15c6,0 10,-7 10,-15z"></path><path d="M2975,1810c-3,-5 1,-10 11,-10c17,0 17,-9 -2,-80c-10,-37 11,-13 25,29c16,50 14,71 -8,71c-11,0 -23,-4 -26,-10z"></path><path d="M1980,1756c0,-48 3,-56 19,-56c28,0 43,24 39,67c-3,33 -7,38 -30,41c-28,3 -28,2 -28,-52zM2020,1760c0,-38 -12,-52 -25,-30c-9,14 4,70 16,70c5,0 9,-18 9,-40z"></path><path d="M2180,1756c0,-31 5,-56 10,-56c6,0 10,6 10,13c0,7 9,18 21,25c31,20 23,66 -13,70c-28,3 -28,2 -28,-52zM2220,1769c0,-10 -4,-19 -10,-19c-5,0 -10,12 -10,26c0,14 4,23 10,19c6,-3 10,-15 10,-26z"></path><path d="M2280,1760c0,-54 17,-73 45,-50c17,14 21,100 5,100c-5,0 -10,-20 -10,-45c0,-25 -4,-45 -10,-45c-5,0 -10,20 -10,45c0,25 -4,45 -10,45c-5,0 -10,-23 -10,-50z"></path><path d="M2708,1755c5,-67 22,-63 22,6c0,32 -4,49 -12,49c-9,0 -12,-16 -10,-55z"></path><path d="M2550,1760c0,-5 7,-10 15,-10c8,0 15,5 15,10c0,6 -7,10 -15,10c-8,0 -15,-4 -15,-10z"></path><path d="M1235,3506c-19,-24 -35,-45 -35,-48c0,-3 45,-42 100,-86l99,-81l40,47c36,42 39,48 25,62c-14,13 -18,12 -38,-12c-26,-33 -37,-35 -60,-9c-16,18 -16,21 -2,44c15,22 15,26 1,37c-12,10 -18,8 -34,-11c-18,-22 -19,-22 -45,-6c-31,21 -32,28 -6,52c24,21 26,41 5,48c-9,4 -27,-10 -50,-37z"></path><path d="M3650,3444c-52,-42 -95,-80 -94,-85c3,-25 5,-29 15,-29c6,0 26,12 44,26c32,24 55,25 55,2c0,-5 -14,-23 -31,-39c-19,-17 -29,-35 -25,-44c9,-25 33,-17 69,25c19,22 41,40 50,40c30,0 77,50 77,82c0,27 -43,99 -59,98c-3,-1 -49,-35 -101,-76zM3770,3425c0,-7 -12,-20 -26,-30c-24,-16 -28,-16 -43,-1c-14,15 -13,18 14,40c30,24 55,20 55,-9z"></path><path d="M1087,3293c-21,-20 2,-43 95,-98c56,-33 105,-61 109,-63c11,-4 69,90 63,100c-7,10 -44,10 -44,0c0,-5 -6,-16 -13,-26c-12,-17 -19,-14 -105,38c-102,61 -96,59 -105,49z"></path><path d="M1036,2168c-54,-15 -101,-30 -105,-33c-3,-3 1,-25 9,-48c14,-38 19,-42 51,-45c25,-2 42,3 54,15c10,10 29,16 42,15c13,-2 36,4 50,13c22,15 25,22 20,57c-3,22 -9,44 -14,48c-4,3 -53,-6 -107,-22zM1120,2131c0,-24 -39,-36 -47,-14c-6,15 12,33 35,33c6,0 12,-8 12,-19zM1030,2095c-16,-19 -55,-16 -55,5c0,16 45,31 59,19c5,-5 4,-15 -4,-24z"></path><path d="M3840,2165c-20,-59 -14,-65 95,-96c55,-16 101,-28 103,-29c4,0 19,42 27,78c5,26 3,32 -10,32c-9,0 -21,-13 -26,-30c-12,-32 -20,-36 -48,-20c-13,6 -17,17 -14,35c4,19 1,25 -12,25c-9,0 -19,-9 -22,-20c-5,-20 -19,-25 -46,-14c-11,4 -14,15 -10,40c8,47 -21,47 -37,-1z"></path><path d="M3793,2013c-3,-8 -2,-18 3,-23c16,-15 196,-80 205,-74c25,15 -1,35 -97,71c-86,34 -106,38 -111,26z"></path><path d="M1092,1978c-82,-34 -103,-60 -84,-103c18,-39 54,-41 128,-10c76,32 94,48 94,80c0,21 -41,66 -59,65c-3,0 -39,-15 -79,-32zM1188,1948c3,-15 -99,-68 -132,-68c-38,0 -13,33 47,60c66,31 80,32 85,8z"></path><path d="M3749,1888c-8,-7 -23,-26 -33,-42c-21,-34 -27,-29 98,-92c70,-36 91,-43 97,-32c9,13 -3,27 -47,55c-16,10 -17,13 -5,22c10,6 26,5 48,-4c30,-13 35,-13 40,2c8,20 -22,43 -56,43c-15,0 -34,10 -46,25c-24,30 -73,42 -96,23zM3814,1845c8,-9 13,-22 10,-30c-7,-18 -8,-18 -44,0c-19,10 -27,20 -24,30c8,19 38,19 58,0z"></path><path d="M1205,1808c-39,-22 -78,-48 -87,-56c-37,-31 -10,-102 38,-102c28,0 174,88 174,105c0,27 -17,23 -90,-21c-75,-45 -94,-51 -105,-35c-8,14 17,35 90,75c66,38 70,42 57,63c-6,9 -27,1 -77,-29z"></path><path d="M3636,1720c-14,-22 -26,-43 -26,-48c0,-4 40,-36 89,-70l89,-62l31,42c17,22 28,45 25,50c-9,14 -29,9 -42,-12c-15,-24 -35,-26 -53,-4c-10,13 -10,19 0,36c9,15 10,23 1,32c-8,8 -16,5 -30,-14l-19,-25l-22,21c-20,20 -20,23 -5,46c14,21 14,27 3,37c-11,9 -20,3 -41,-29z"></path><path d="M1313,1636c-28,-24 -65,-54 -82,-68l-32,-24l35,-39c27,-32 37,-37 47,-28c10,10 9,16 -4,31c-9,10 -17,21 -17,25c0,3 32,32 70,63c39,31 69,62 67,68c-8,23 -33,14 -84,-28z"></path><path d="M3517,1572c-25,-27 -21,-57 10,-81c21,-17 35,-20 72,-15c36,5 50,2 60,-10c17,-20 7,-31 -26,-31c-36,0 -39,-19 -7,-34c58,-26 104,52 58,99c-10,10 -35,15 -77,15c-55,0 -62,2 -62,20c0,19 3,20 35,13c9,-2 15,4 15,17c0,28 -55,33 -78,7z"></path><path d="M1465,1530c-11,-4 -47,-35 -79,-69c-51,-52 -58,-62 -46,-76c12,-14 15,-14 30,0c34,30 64,7 34,-26c-16,-18 -16,-21 -2,-35c14,-14 22,-8 82,57c78,87 85,118 29,148c-25,13 -22,12 -48,1zM1507,1484c6,-17 -42,-74 -63,-74c-25,0 -21,26 9,58c35,36 45,39 54,16z"></path><path d="M3375,1436c-33,-50 12,-96 96,-96c27,0 42,-5 46,-16c8,-22 -12,-40 -29,-26c-8,6 -19,7 -28,2c-11,-7 -11,-11 -1,-24c30,-35 101,-7 101,40c0,40 -37,64 -98,64c-45,0 -73,23 -54,42c9,9 15,9 23,1c14,-14 39,-6 39,12c0,32 -74,34 -95,1z"></path><path d="M1610,1397c-23,-18 -110,-139 -110,-153c0,-6 6,-14 13,-17c9,-3 34,23 67,69c29,41 59,74 66,74c27,0 13,-38 -36,-104c-48,-63 -55,-86 -26,-86c21,0 116,140 116,171c0,46 -56,74 -90,46z"></path><path d="M3267,1359c-15,-9 -10,-20 43,-99c66,-99 73,-105 88,-87c10,12 -9,47 -102,178c-8,13 -16,15 -29,8z"></path><path d="M3145,1285c-44,-27 -53,-51 -18,-48c19,2 29,-10 63,-77c37,-73 55,-92 73,-73c4,3 -13,44 -37,89c-36,68 -42,85 -31,94c13,11 10,40 -4,40c-3,0 -24,-12 -46,-25z"></path><path d="M1768,1283c-8,-10 -30,-46 -49,-79c-29,-54 -32,-65 -22,-87c14,-29 57,-45 82,-30c9,5 25,26 36,47c17,32 18,38 5,46c-24,15 -40,12 -40,-9c0,-43 -28,-68 -45,-41c-11,17 57,130 78,130c15,0 18,-5 13,-24c-8,-34 21,-44 36,-11c25,54 -55,103 -94,58z"></path><path d="M2946,1244c-9,-23 -2,-28 13,-10c7,8 19,12 27,9c8,-3 14,0 14,6c0,17 -47,13 -54,-5z"></path><path d="M1941,1208c-37,-95 -71,-183 -71,-184c0,-8 91,-35 99,-29c18,11 12,22 -18,35c-27,11 -29,14 -19,40c8,25 13,28 33,20c13,-5 26,-6 29,-3c11,12 6,33 -8,33c-20,0 -29,16 -21,40c5,17 14,20 42,18c50,-4 52,16 3,36c-53,21 -59,20 -69,-6z"></path><path d="M2960,1200c-26,-26 -26,-30 12,-133c23,-63 37,-87 48,-84c10,2 14,12 12,35c-3,26 0,32 17,32c11,0 22,-9 26,-20c6,-19 25,-26 38,-14c8,8 -51,165 -70,186c-21,24 -58,23 -83,-2zM3033,1139c17,-43 15,-59 -8,-59c-15,0 -48,76 -40,91c13,20 33,7 48,-32z"></path><path d="M2088,1065c-14,-60 -21,-108 -16,-111c18,-11 36,5 42,41c10,50 31,39 31,-15c0,-28 5,-45 14,-48c19,-6 31,17 31,63c0,22 7,49 15,59c16,21 20,64 7,82c-11,17 -48,34 -74,34c-22,0 -26,-9 -50,-105zM2175,1119c13,-19 -4,-59 -25,-59c-23,0 -24,8 -10,44c10,27 24,33 35,15z"></path><path d="M2772,1153c-25,-5 -25,-3 7,-143c12,-54 21,-76 34,-78c13,-3 17,3 17,25c0,21 8,32 31,46c30,17 31,20 27,67c-8,78 -36,98 -116,83zM2844,1098c10,-39 7,-68 -8,-68c-19,0 -23,7 -31,53c-6,33 -5,37 13,37c12,0 22,-9 26,-22z"></path><path d="M2305,1128c-5,-16 -25,-175 -25,-200c0,-11 7,-18 19,-18c16,0 20,13 31,100c7,55 10,107 6,115c-7,18 -25,20 -31,3z"></path><path d="M2427,1123c-4,-3 -7,-55 -7,-115v-108h55c42,0 55,3 55,15c0,10 -11,15 -35,15c-32,0 -35,2 -35,29c0,25 4,30 28,33c36,4 36,32 -1,36c-24,3 -28,7 -25,30c2,22 9,28 36,30c34,3 44,25 16,36c-21,8 -79,8 -87,-1z"></path><path d="M2610,1015c0,-16 35,-20 64,-9c29,11 16,24 -24,24c-29,0 -40,-4 -40,-15z"></path></g></g></g></svg>