<?xml version="1.0" standalone="no"?>
<!DOCTYPE svg PUBLIC "-//W3C//DTD SVG 20010904//EN"
 "http://www.w3.org/TR/2001/REC-SVG-20010904/DTD/svg10.dtd">
<svg version="1.0" xmlns="http://www.w3.org/2000/svg"
 width="500.000000pt" height="500.000000pt" viewBox="0 0 500.000000 500.000000"
 preserveAspectRatio="xMidYMid meet">

<g transform="translate(0.000000,500.000000) scale(0.100000,-0.100000)"
fill="#000000" stroke="none">
<path d="M2223 4374 c-704 -102 -1300 -605 -1523 -1281 -71 -219 -85 -313 -85
-593 0 -216 3 -258 23 -359 155 -767 752 -1359 1514 -1502 160 -30 431 -37
598 -15 550 72 1029 375 1343 851 120 182 222 434 269 665 20 102 23 143 23
360 0 216 -3 258 -23 359 -127 629 -544 1139 -1133 1389 -237 101 -456 143
-739 141 -96 -1 -216 -7 -267 -15z m578 -57 c460 -79 889 -339 1167 -710 555
-742 482 -1758 -175 -2413 -491 -488 -1211 -656 -1878 -438 -96 32 -294 125
-390 184 -407 249 -721 696 -824 1172 -98 455 -17 938 226 1342 138 229 355
450 582 594 266 168 495 247 831 286 71 8 378 -3 461 -17z"/>
<path d="M2295 4284 c-757 -85 -1382 -647 -1549 -1395 -133 -597 47 -1219 480
-1652 150 -151 336 -283 504 -359 90 -41 199 -80 211 -76 6 2 -20 14 -58 27
-145 51 -345 162 -473 263 -311 245 -537 587 -631 953 -53 204 -72 452 -50
645 70 612 439 1138 991 1411 243 120 499 179 780 179 330 0 628 -83 926 -258
219 -129 463 -373 596 -597 416 -700 320 -1580 -236 -2153 -440 -454 -1057
-643 -1668 -511 -51 12 -104 23 -118 25 l-25 4 25 -10 c55 -25 233 -59 362
-71 399 -36 845 87 1176 325 248 179 449 415 577 681 228 472 242 1005 38
1484 -256 603 -807 1014 -1458 1086 -155 18 -239 17 -400 -1z"/>
<path d="M2446 4089 c-25 -20 -26 -23 -26 -135 0 -114 0 -115 23 -112 21 3 22
6 19 94 -4 93 7 139 31 131 8 -2 14 -42 17 -113 5 -104 6 -109 28 -112 22 -3
22 -2 22 108 0 104 -1 112 -25 135 -30 30 -54 31 -89 4z"/>
<path d="M2676 4068 c-13 -63 -27 -217 -22 -227 4 -6 13 -11 21 -11 9 0 16 27
24 88 24 186 24 172 2 172 -13 0 -22 -8 -25 -22z"/>
<path d="M2176 4073 c-15 -4 -17 -11 -12 -36 4 -18 14 -76 23 -129 13 -81 19
-98 34 -98 25 0 28 9 19 58 -5 27 -4 45 3 49 15 9 47 -35 47 -63 0 -19 5 -24
25 -24 29 0 30 10 8 65 -8 22 -14 63 -14 92 3 66 -21 94 -76 92 -21 -1 -46 -3
-57 -6z m86 -57 c13 -31 4 -56 -21 -56 -14 0 -20 9 -23 35 -2 20 -2 38 1 40
12 12 32 3 43 -19z"/>
<path d="M2812 3948 c-17 -68 -27 -127 -23 -131 12 -12 90 -29 102 -22 19 12
8 34 -21 40 -36 8 -37 13 -6 132 24 93 23 103 -14 103 -4 0 -21 -55 -38 -122z"/>
<path d="M2010 4030 c-12 -8 -10 -23 19 -111 23 -71 30 -104 22 -112 -18 -18
-36 9 -70 107 -28 80 -35 93 -52 89 -10 -3 -19 -10 -19 -16 0 -23 64 -192 79
-210 22 -27 79 -19 104 14 l19 27 -37 111 c-20 61 -40 111 -43 111 -4 0 -14
-5 -22 -10z"/>
<path d="M1743 3920 c-12 -5 -30 -21 -39 -35 -16 -25 -16 -28 7 -77 13 -29 36
-71 51 -95 24 -37 32 -43 61 -43 38 0 77 34 77 66 0 17 -72 160 -88 175 -14
13 -48 17 -69 9z m71 -107 c40 -75 46 -106 19 -101 -21 4 -96 135 -89 154 11
30 36 11 70 -53z"/>
<path d="M3160 3819 c-57 -104 -60 -112 -43 -125 32 -24 88 -37 110 -26 28 15
103 165 96 192 -6 21 -68 70 -90 70 -6 0 -39 -50 -73 -111z m116 37 c8 -22
-65 -146 -86 -146 -31 0 -30 12 12 88 38 69 62 88 74 58z"/>
<path d="M1531 3789 c-24 -18 -40 -37 -37 -45 11 -29 142 -194 154 -194 25 0
23 29 -3 65 -26 33 -27 37 -11 54 30 33 10 66 -23 37 -16 -15 -19 -14 -42 10
l-24 26 30 24 c27 21 28 25 14 39 -13 14 -19 12 -58 -16z"/>
<path d="M3431 3787 c-6 -8 -8 -17 -4 -21 4 -4 1 -11 -7 -16 -12 -7 -11 -10 4
-16 24 -9 60 34 44 53 -13 17 -23 16 -37 0z"/>
<path d="M3481 3613 c-65 -73 -78 -115 -43 -145 47 -42 76 -31 156 60 62 69
69 97 33 130 -44 41 -78 30 -146 -45z m119 7 c0 -29 -103 -135 -123 -127 -27
10 -20 25 40 88 58 61 83 73 83 39z"/>
<path d="M2340 3659 c-155 -17 -339 -80 -481 -165 -102 -62 -262 -212 -334
-315 -104 -146 -170 -306 -202 -487 -9 -51 -20 -89 -24 -85 -3 5 -12 24 -18
44 -11 35 -104 149 -113 139 -11 -12 11 -160 31 -211 11 -30 41 -79 66 -108
29 -34 45 -62 45 -79 0 -15 3 -38 7 -52 5 -20 -8 -11 -58 40 -55 57 -126 106
-137 95 -2 -1 10 -29 26 -61 16 -33 37 -85 47 -116 21 -67 67 -125 131 -165
39 -24 52 -40 85 -113 97 -207 226 -358 414 -485 209 -140 420 -199 710 -199
206 0 321 27 501 114 229 111 385 256 511 475 70 122 143 346 143 440 0 65 11
69 35 12 22 -56 91 -147 110 -147 17 0 0 147 -25 211 -11 31 -41 79 -68 109
-43 48 -50 62 -56 114 l-8 59 44 -54 c41 -51 153 -137 164 -126 3 2 -4 20 -16
39 -11 19 -31 68 -45 109 -35 101 -63 140 -140 191 -60 39 -70 50 -99 114
-142 306 -453 556 -788 633 -158 36 -309 46 -458 30z m420 -45 c185 -47 372
-155 516 -298 104 -104 178 -210 239 -340 62 -135 62 -131 22 -179 -67 -83
-78 -129 -69 -286 l7 -115 47 70 c25 38 54 86 64 106 21 45 34 40 34 -11 0
-30 -7 -44 -36 -72 -54 -52 -111 -155 -135 -247 -12 -45 -19 -85 -15 -89 3 -4
41 28 83 70 42 42 78 75 81 73 6 -7 -40 -168 -69 -238 -151 -368 -495 -633
-900 -692 -132 -20 -214 -20 -304 -1 -412 87 -725 353 -870 740 l-25 65 44 58
c24 31 49 72 55 91 14 43 15 301 1 301 -5 0 -10 -5 -10 -10 0 -6 -21 -41 -46
-78 -25 -37 -53 -83 -61 -102 -14 -32 -16 -33 -23 -15 -19 46 -11 74 34 115
54 50 117 169 140 264 9 38 14 71 11 74 -3 3 -41 -30 -85 -73 -56 -56 -80 -74
-80 -61 0 36 71 231 111 303 141 256 349 435 621 536 213 80 413 93 618 41z
m-560 2 c0 -2 -21 -11 -47 -21 -81 -30 -225 -105 -293 -153 -227 -160 -391
-406 -459 -687 -10 -44 -33 -109 -50 -145 -28 -61 -30 -63 -31 -32 0 51 37
222 66 304 62 172 149 310 278 437 99 99 180 157 296 213 93 46 240 97 240 84z
m863 -97 c144 -73 323 -230 414 -364 46 -68 118 -207 128 -246 4 -17 1 -30 -9
-38 -13 -11 -17 -9 -27 15 -45 107 -92 200 -134 264 -67 102 -210 243 -325
319 -52 35 -97 65 -99 67 -11 10 14 2 52 -17z m638 -701 c39 -54 122 -218 110
-218 -15 0 -97 96 -115 135 -25 52 -45 125 -35 125 5 0 23 -19 40 -42z m59
-20 c28 -39 65 -136 56 -146 -3 -2 -21 29 -41 69 -21 41 -49 89 -62 108 -24
31 -24 32 -4 22 12 -7 35 -31 51 -53z m-165 -15 c-9 -32 -29 -85 -45 -119 -15
-33 -33 -85 -40 -115 -23 -100 -29 -98 -29 11 0 83 3 114 19 148 20 43 100
146 108 138 2 -3 -4 -31 -13 -63z m-2049 19 c-4 -11 -35 -52 -70 -91 -35 -40
-80 -100 -101 -134 -33 -55 -36 -58 -31 -28 11 61 50 124 125 204 73 77 89 87
77 49z m2080 -76 c-16 -71 -59 -172 -90 -211 -15 -19 -15 -19 -16 8 0 16 17
70 38 120 21 51 44 114 52 140 10 39 15 45 22 32 7 -11 4 -41 -6 -89z m-2098
-8 c-21 -60 -76 -144 -123 -187 -26 -24 -49 -41 -51 -38 -7 7 20 60 59 117 28
40 115 140 123 140 2 0 -2 -15 -8 -32z m2152 -114 c0 -28 -33 -75 -44 -63 -16
15 -6 173 12 204 7 12 31 -95 32 -141z m-2446 0 c15 -53 25 -98 23 -100 -14
-15 -77 159 -77 211 1 41 27 -12 54 -111z m10 86 c28 -43 56 -135 56 -184 0
-29 -1 -30 -14 -10 -8 11 -22 47 -30 81 -9 33 -23 76 -31 96 -28 67 -19 74 19
17z m283 -285 c-2 -40 -11 -85 -22 -105 -22 -42 -96 -133 -103 -126 -8 9 19
95 55 179 19 43 39 106 45 140 l12 62 9 -40 c4 -22 7 -71 4 -110z m2122 99
c-16 -43 -95 -156 -139 -199 l-40 -39 9 30 c16 57 73 144 123 189 28 25 52 45
54 45 2 0 -1 -12 -7 -26z m96 -42 c9 -31 25 -81 36 -111 11 -30 18 -56 15 -58
-9 -9 -50 63 -67 119 -21 65 -25 123 -9 113 5 -3 17 -32 25 -63z m-2294 -84
c-22 -52 -45 -115 -51 -141 -16 -59 -34 -51 -25 12 9 67 29 130 60 192 39 78
49 88 53 57 2 -15 -15 -68 -37 -120z m2336 80 c28 -60 48 -147 36 -159 -8 -8
-23 28 -64 165 -19 62 -2 59 28 -6z m-122 10 c-14 -61 -55 -128 -127 -204 -39
-41 -73 -72 -75 -70 -11 11 13 52 63 108 30 33 73 91 96 129 24 37 44 68 46
69 2 0 0 -15 -3 -32z m-2291 -65 c4 -45 1 -85 -8 -118 -15 -57 -18 -52 -36 69
-9 57 -8 72 5 92 8 13 19 24 24 24 5 0 11 -30 15 -67z m2292 -106 c-64 -337
-257 -617 -542 -787 -85 -50 -235 -114 -294 -124 -19 -4 9 11 63 33 363 146
621 445 707 818 12 48 33 115 48 149 27 60 27 61 30 28 2 -19 -4 -71 -12 -117z
m-2397 53 c35 -44 63 -102 86 -180 l7 -25 -29 28 c-25 23 -143 224 -143 242 0
15 45 -22 79 -65z m-32 -53 c19 -40 44 -84 55 -99 41 -58 -14 -18 -61 44 -16
22 -52 140 -40 132 5 -3 26 -38 46 -77z m213 -222 c89 -226 280 -456 473 -569
37 -21 67 -40 67 -42 0 -3 -31 11 -68 30 -92 46 -214 139 -289 219 -126 136
-257 371 -232 418 14 26 20 19 49 -56z"/>
<path d="M2570 3174 c-92 -42 -180 -146 -191 -224 -5 -31 17 -29 80 7 86 50
169 146 186 216 9 34 -3 35 -75 1z"/>
<path d="M2900 3176 c-86 -25 -190 -90 -190 -119 0 -18 191 -1 243 22 64 28
140 82 129 93 -15 15 -135 18 -182 4z"/>
<path d="M2235 3002 c-65 -49 -111 -111 -130 -174 -17 -57 -20 -128 -6 -128 5
0 34 23 65 51 38 35 67 73 91 122 34 70 57 167 39 167 -5 0 -31 -17 -59 -38z"/>
<path d="M2625 2987 c-59 -20 -106 -47 -100 -57 13 -21 113 -44 190 -43 78 1
186 30 201 54 3 5 -16 19 -42 30 -60 27 -191 35 -249 16z"/>
<path d="M2367 2836 c-21 -8 -42 -17 -45 -21 -22 -21 119 -75 213 -81 70 -5
149 11 156 31 1 6 -28 25 -65 44 -56 28 -81 35 -144 38 -50 2 -90 -2 -115 -11z"/>
<path d="M1975 2796 c-40 -53 -65 -128 -65 -197 0 -70 17 -139 35 -139 20 0
74 121 83 185 8 65 0 161 -16 177 -6 6 -19 -3 -37 -26z"/>
<path d="M2819 2738 c44 -60 116 -187 109 -194 -3 -2 -18 15 -33 38 -16 24
-53 69 -83 100 l-54 57 -44 -24 c-24 -13 -49 -25 -56 -27 -8 -3 5 -28 36 -69
72 -96 143 -248 159 -339 5 -28 1 -23 -22 27 -54 115 -118 196 -204 260 l-48
35 -57 -25 c-31 -14 -70 -29 -87 -33 -49 -11 -49 -15 6 -62 29 -26 78 -79 110
-120 60 -75 144 -210 136 -218 -2 -2 -24 21 -48 52 -24 31 -68 76 -98 101 -56
46 -179 113 -206 113 -8 0 -45 -20 -81 -45 -37 -24 -85 -51 -108 -60 -23 -8
-63 -23 -91 -33 -49 -18 -50 -19 -49 -58 1 -59 35 -108 96 -138 l52 -26 440 0
c277 0 455 4 479 11 53 14 101 60 127 121 19 45 22 65 18 157 -3 82 -9 117
-26 156 -37 80 -96 149 -171 199 -62 42 -192 96 -228 96 -8 0 2 -21 26 -52z"/>
<path d="M2234 2672 c-27 -10 -66 -27 -84 -39 l-34 -22 29 -13 c18 -7 74 -12
140 -13 103 0 114 2 175 31 l65 32 -45 21 c-58 26 -173 28 -246 3z"/>
<path d="M1799 2539 c-9 -16 -14 -57 -14 -124 0 -90 3 -105 27 -150 54 -99 73
-108 83 -40 13 83 1 186 -27 245 -14 30 -32 64 -41 74 -14 19 -15 19 -28 -5z"/>
<path d="M2177 2499 c-80 -19 -133 -49 -150 -85 -10 -19 -17 -46 -17 -59 l0
-24 53 16 c78 22 179 79 222 123 l39 40 -54 -1 c-30 -1 -72 -5 -93 -10z"/>
<path d="M2084 1806 c-3 -7 -4 -33 -2 -57 2 -37 7 -45 26 -47 12 -2 22 1 22 7
0 6 -7 11 -15 11 -8 0 -15 7 -15 15 0 8 7 15 15 15 8 0 15 5 15 10 0 6 -7 10
-15 10 -8 0 -15 7 -15 15 0 8 7 15 15 15 8 0 15 5 15 10 0 15 -40 12 -46 -4z"/>
<path d="M2388 1764 c-1 -31 0 -58 5 -61 4 -2 7 23 7 56 0 76 -7 79 -12 5z"/>
<path d="M2463 1813 c-19 -7 -15 -38 7 -58 11 -10 20 -22 20 -27 0 -5 -9 -6
-20 -3 -12 4 -20 2 -20 -5 0 -18 31 -24 46 -8 13 13 12 18 -6 40 -25 32 -28
57 -4 37 14 -12 16 -11 13 5 -4 21 -17 27 -36 19z"/>
<path d="M2782 1808 c-19 -19 -14 -49 8 -55 11 -3 20 -12 20 -20 0 -10 -6 -12
-20 -8 -15 5 -18 3 -14 -9 8 -21 40 -21 48 0 15 40 1 104 -24 104 -3 0 -11 -5
-18 -12z m28 -23 c0 -8 -4 -15 -10 -15 -5 0 -10 7 -10 15 0 8 5 15 10 15 6 0
10 -7 10 -15z"/>
<path d="M2880 1805 c-14 -17 -4 -55 16 -55 8 0 14 -7 14 -16 0 -11 -5 -14
-16 -10 -10 4 -14 1 -12 -6 3 -7 13 -13 24 -13 16 0 20 8 22 49 2 32 -1 52
-10 57 -18 12 -24 11 -38 -6z m30 -20 c0 -8 -4 -15 -10 -15 -5 0 -10 7 -10 15
0 8 5 15 10 15 6 0 10 -7 10 -15z"/>
<path d="M2975 1810 c-3 -5 1 -10 11 -10 17 0 17 -9 -2 -80 -10 -37 11 -13 25
29 16 50 14 71 -8 71 -11 0 -23 -4 -26 -10z"/>
<path d="M1980 1756 c0 -48 3 -56 19 -56 28 0 43 24 39 67 -3 33 -7 38 -30 41
-28 3 -28 2 -28 -52z m40 4 c0 -38 -12 -52 -25 -30 -9 14 4 70 16 70 5 0 9
-18 9 -40z"/>
<path d="M2180 1756 c0 -31 5 -56 10 -56 6 0 10 6 10 13 0 7 9 18 21 25 31 20
23 66 -13 70 -28 3 -28 2 -28 -52z m40 13 c0 -10 -4 -19 -10 -19 -5 0 -10 12
-10 26 0 14 4 23 10 19 6 -3 10 -15 10 -26z"/>
<path d="M2280 1760 c0 -54 17 -73 45 -50 17 14 21 100 5 100 -5 0 -10 -20
-10 -45 0 -25 -4 -45 -10 -45 -5 0 -10 20 -10 45 0 25 -4 45 -10 45 -5 0 -10
-23 -10 -50z"/>
<path d="M2708 1755 c5 -67 22 -63 22 6 0 32 -4 49 -12 49 -9 0 -12 -16 -10
-55z"/>
<path d="M2550 1760 c0 -5 7 -10 15 -10 8 0 15 5 15 10 0 6 -7 10 -15 10 -8 0
-15 -4 -15 -10z"/>
<path d="M1235 3506 c-19 -24 -35 -45 -35 -48 0 -3 45 -42 100 -86 l99 -81 40
47 c36 42 39 48 25 62 -14 13 -18 12 -38 -12 -26 -33 -37 -35 -60 -9 -16 18
-16 21 -2 44 15 22 15 26 1 37 -12 10 -18 8 -34 -11 -18 -22 -19 -22 -45 -6
-31 21 -32 28 -6 52 24 21 26 41 5 48 -9 4 -27 -10 -50 -37z"/>
<path d="M3650 3444 c-52 -42 -95 -80 -94 -85 3 -25 5 -29 15 -29 6 0 26 12
44 26 32 24 55 25 55 2 0 -5 -14 -23 -31 -39 -19 -17 -29 -35 -25 -44 9 -25
33 -17 69 25 19 22 41 40 50 40 30 0 77 50 77 82 0 27 -43 99 -59 98 -3 -1
-49 -35 -101 -76z m120 -19 c0 -7 -12 -20 -26 -30 -24 -16 -28 -16 -43 -1 -14
15 -13 18 14 40 30 24 55 20 55 -9z"/>
<path d="M1087 3293 c-21 -20 2 -43 95 -98 56 -33 105 -61 109 -63 11 -4 69
90 63 100 -7 10 -44 10 -44 0 0 -5 -6 -16 -13 -26 -12 -17 -19 -14 -105 38
-102 61 -96 59 -105 49z"/>
<path d="M1036 2168 c-54 -15 -101 -30 -105 -33 -3 -3 1 -25 9 -48 14 -38 19
-42 51 -45 25 -2 42 3 54 15 10 10 29 16 42 15 13 -2 36 4 50 13 22 15 25 22
20 57 -3 22 -9 44 -14 48 -4 3 -53 -6 -107 -22z m84 -37 c0 -24 -39 -36 -47
-14 -6 15 12 33 35 33 6 0 12 -8 12 -19z m-90 -36 c-16 -19 -55 -16 -55 5 0
16 45 31 59 19 5 -5 4 -15 -4 -24z"/>
<path d="M3840 2165 c-20 -59 -14 -65 95 -96 55 -16 101 -28 103 -29 4 0 19
42 27 78 5 26 3 32 -10 32 -9 0 -21 -13 -26 -30 -12 -32 -20 -36 -48 -20 -13
6 -17 17 -14 35 4 19 1 25 -12 25 -9 0 -19 -9 -22 -20 -5 -20 -19 -25 -46 -14
-11 4 -14 15 -10 40 8 47 -21 47 -37 -1z"/>
<path d="M3793 2013 c-3 -8 -2 -18 3 -23 16 -15 196 -80 205 -74 25 15 -1 35
-97 71 -86 34 -106 38 -111 26z"/>
<path d="M1092 1978 c-82 -34 -103 -60 -84 -103 18 -39 54 -41 128 -10 76 32
94 48 94 80 0 21 -41 66 -59 65 -3 0 -39 -15 -79 -32z m96 -30 c3 -15 -99 -68
-132 -68 -38 0 -13 33 47 60 66 31 80 32 85 8z"/>
<path d="M3749 1888 c-8 -7 -23 -26 -33 -42 -21 -34 -27 -29 98 -92 70 -36 91
-43 97 -32 9 13 -3 27 -47 55 -16 10 -17 13 -5 22 10 6 26 5 48 -4 30 -13 35
-13 40 2 8 20 -22 43 -56 43 -15 0 -34 10 -46 25 -24 30 -73 42 -96 23z m65
-43 c8 -9 13 -22 10 -30 -7 -18 -8 -18 -44 0 -19 10 -27 20 -24 30 8 19 38 19
58 0z"/>
<path d="M1205 1808 c-39 -22 -78 -48 -87 -56 -37 -31 -10 -102 38 -102 28 0
174 88 174 105 0 27 -17 23 -90 -21 -75 -45 -94 -51 -105 -35 -8 14 17 35 90
75 66 38 70 42 57 63 -6 9 -27 1 -77 -29z"/>
<path d="M3636 1720 c-14 -22 -26 -43 -26 -48 0 -4 40 -36 89 -70 l89 -62 31
42 c17 22 28 45 25 50 -9 14 -29 9 -42 -12 -15 -24 -35 -26 -53 -4 -10 13 -10
19 0 36 9 15 10 23 1 32 -8 8 -16 5 -30 -14 l-19 -25 -22 21 c-20 20 -20 23
-5 46 14 21 14 27 3 37 -11 9 -20 3 -41 -29z"/>
<path d="M1313 1636 c-28 -24 -65 -54 -82 -68 l-32 -24 35 -39 c27 -32 37 -37
47 -28 10 10 9 16 -4 31 -9 10 -17 21 -17 25 0 3 32 32 70 63 39 31 69 62 67
68 -8 23 -33 14 -84 -28z"/>
<path d="M3517 1572 c-25 -27 -21 -57 10 -81 21 -17 35 -20 72 -15 36 5 50 2
60 -10 17 -20 7 -31 -26 -31 -36 0 -39 -19 -7 -34 58 -26 104 52 58 99 -10 10
-35 15 -77 15 -55 0 -62 2 -62 20 0 19 3 20 35 13 9 -2 15 4 15 17 0 28 -55
33 -78 7z"/>
<path d="M1465 1530 c-11 -4 -47 -35 -79 -69 -51 -52 -58 -62 -46 -76 12 -14
15 -14 30 0 34 30 64 7 34 -26 -16 -18 -16 -21 -2 -35 14 -14 22 -8 82 57 78
87 85 118 29 148 -25 13 -22 12 -48 1z m42 -46 c6 -17 -42 -74 -63 -74 -25 0
-21 26 9 58 35 36 45 39 54 16z"/>
<path d="M3375 1436 c-33 -50 12 -96 96 -96 27 0 42 -5 46 -16 8 -22 -12 -40
-29 -26 -8 6 -19 7 -28 2 -11 -7 -11 -11 -1 -24 30 -35 101 -7 101 40 0 40
-37 64 -98 64 -45 0 -73 23 -54 42 9 9 15 9 23 1 14 -14 39 -6 39 12 0 32 -74
34 -95 1z"/>
<path d="M1610 1397 c-23 -18 -110 -139 -110 -153 0 -6 6 -14 13 -17 9 -3 34
23 67 69 29 41 59 74 66 74 27 0 13 -38 -36 -104 -48 -63 -55 -86 -26 -86 21
0 116 140 116 171 0 46 -56 74 -90 46z"/>
<path d="M3267 1359 c-15 -9 -10 -20 43 -99 66 -99 73 -105 88 -87 10 12 -9
47 -102 178 -8 13 -16 15 -29 8z"/>
<path d="M3145 1285 c-44 -27 -53 -51 -18 -48 19 2 29 -10 63 -77 37 -73 55
-92 73 -73 4 3 -13 44 -37 89 -36 68 -42 85 -31 94 13 11 10 40 -4 40 -3 0
-24 -12 -46 -25z"/>
<path d="M1768 1283 c-8 -10 -30 -46 -49 -79 -29 -54 -32 -65 -22 -87 14 -29
57 -45 82 -30 9 5 25 26 36 47 17 32 18 38 5 46 -24 15 -40 12 -40 -9 0 -43
-28 -68 -45 -41 -11 17 57 130 78 130 15 0 18 -5 13 -24 -8 -34 21 -44 36 -11
25 54 -55 103 -94 58z"/>
<path d="M2946 1244 c-9 -23 -2 -28 13 -10 7 8 19 12 27 9 8 -3 14 0 14 6 0
17 -47 13 -54 -5z"/>
<path d="M1941 1208 c-37 -95 -71 -183 -71 -184 0 -8 91 -35 99 -29 18 11 12
22 -18 35 -27 11 -29 14 -19 40 8 25 13 28 33 20 13 -5 26 -6 29 -3 11 12 6
33 -8 33 -20 0 -29 16 -21 40 5 17 14 20 42 18 50 -4 52 16 3 36 -53 21 -59
20 -69 -6z"/>
<path d="M2960 1200 c-26 -26 -26 -30 12 -133 23 -63 37 -87 48 -84 10 2 14
12 12 35 -3 26 0 32 17 32 11 0 22 -9 26 -20 6 -19 25 -26 38 -14 8 8 -51 165
-70 186 -21 24 -58 23 -83 -2z m73 -61 c17 -43 15 -59 -8 -59 -15 0 -48 76
-40 91 13 20 33 7 48 -32z"/>
<path d="M2088 1065 c-14 -60 -21 -108 -16 -111 18 -11 36 5 42 41 10 50 31
39 31 -15 0 -28 5 -45 14 -48 19 -6 31 17 31 63 0 22 7 49 15 59 16 21 20 64
7 82 -11 17 -48 34 -74 34 -22 0 -26 -9 -50 -105z m87 54 c13 -19 -4 -59 -25
-59 -23 0 -24 8 -10 44 10 27 24 33 35 15z"/>
<path d="M2772 1153 c-25 -5 -25 -3 7 -143 12 -54 21 -76 34 -78 13 -3 17 3
17 25 0 21 8 32 31 46 30 17 31 20 27 67 -8 78 -36 98 -116 83z m72 -55 c10
-39 7 -68 -8 -68 -19 0 -23 7 -31 53 -6 33 -5 37 13 37 12 0 22 -9 26 -22z"/>
<path d="M2305 1128 c-5 -16 -25 -175 -25 -200 0 -11 7 -18 19 -18 16 0 20 13
31 100 7 55 10 107 6 115 -7 18 -25 20 -31 3z"/>
<path d="M2427 1123 c-4 -3 -7 -55 -7 -115 l0 -108 55 0 c42 0 55 3 55 15 0
10 -11 15 -35 15 -32 0 -35 2 -35 29 0 25 4 30 28 33 36 4 36 32 -1 36 -24 3
-28 7 -25 30 2 22 9 28 36 30 34 3 44 25 16 36 -21 8 -79 8 -87 -1z"/>
<path d="M2610 1015 c0 -16 35 -20 64 -9 29 11 16 24 -24 24 -29 0 -40 -4 -40
-15z"/>
</g>
</svg>
